<svg xmlns="http://www.w3.org/2000/svg" xml:space="preserve" style="fill-rule:evenodd;clip-rule:evenodd;stroke-linecap:round;stroke-linejoin:round;stroke-miterlimit:1.5" viewBox="0 0 4167 4167">
  <path d="M8696 0h4166v4167H8696z" style="fill:none" transform="translate(-8696)"/>
  <path d="M4761 387c-17 2128 3383 1137 3403 3403" style="fill:none;stroke:#000;stroke-width:850px" transform="matrix(.853 0 0 .853 -3429 302)"/>
  <path d="M4761 387c-17 2128 3383 1137 3403 3403" style="fill:none;stroke:#000;stroke-width:830.46px" transform="matrix(.853 0 0 .853 -3429 302)"/>
  <path d="M3203 810H1091c-10-53-15-111-15-174 1-65-13-126-37-181h2230a320 320 0 0 1 586 175c5 695-332 1081-803 1348a5080 5080 0 0 0-784-341c173-64 340-133 488-219l63-39H1602c-44-22-87-45-129-69a807 807 0 0 1-304-287h1970c30-63 51-134 64-213ZM898 3712a320 320 0 0 1-586-180c6-721 338-1129 797-1407 116 61 240 117 369 168 136 55 279 105 421 155-235 88-460 188-631 340h1413a872 872 0 0 1 326 356H1020c-25 64-43 135-55 213h2110c9 56 15 116 16 181 0 62 13 121 37 174H898Z"/>
</svg>
