<svg xmlns="http://www.w3.org/2000/svg" viewBox="0 0 1 1" width="1" height="1">
  <symbol id="ge-logo" viewBox="0 0 492 684">
    <path fill="#fff" d="M242.26 198.74a40.04 40.04 0 0 1 43.14 43.14 40.16 40.16 0 0 1-36.61 36.6 40.04 40.04 0 0 1-43.13-43.12 40.16 40.16 0 0 1 36.6-36.62m238.9 269.15c-13.53-13.8-36.2-13.25-49.9.37a264.87 264.87 0 0 1-26.23 22.81l-83.24-168.7a113.05 113.05 0 0 1-56.18 27.76l85.23 172.74a264.97 264.97 0 0 1-213.55-1.32l90.75-179.1a19.33 19.33 0 0 1 17.37-10.5h.12c51.46 0 93.33-41.87 93.33-93.34 0-37.54-22.28-69.97-54.3-84.77a19.26 19.26 0 0 1-11.03-17.54v-9.81c0-2.1 1.7-3.8 3.8-3.8h3.78c5.9 0 10.68-4.78 10.68-10.68V35.56A35.56 35.56 0 0 0 256.23 0h-21.4a35.56 35.56 0 0 0-35.56 35.56V112c0 5.9 4.78 10.68 10.68 10.68h3.78c2.1 0 3.8 1.7 3.8 3.8v9.81c0 7.48-4.23 14.4-11.02 17.54-32.03 14.8-54.31 47.23-54.31 84.77 0 20.71 6.8 39.86 18.25 55.36a18.97 18.97 0 0 1 1.83 19.88L83.48 489.1a264.9 264.9 0 0 1-24.3-21.48 34.67 34.67 0 1 0-49.03 49.03 337.33 337.33 0 0 0 38.9 33.39L34.63 578.9a55.13 55.13 0 0 0-5.37 17.6l-10.78 83.67a3.29 3.29 0 0 0 5.47 2.84l58.95-53.87c5-4.56 9.1-10 12.12-16.04l14.03-28.05a331.97 331.97 0 0 0 136.48 29.09c88.91 0 172.5-34.62 235.37-97.5a34.67 34.67 0 0 0 .26-48.76M461.8 596.51a55.16 55.16 0 0 0-5.37-17.6l-5.16-10.33a351.5 351.5 0 0 1-60.14 34.73l4.9 9.8a55.17 55.17 0 0 0 12.12 16.04l58.95 53.87a3.29 3.29 0 0 0 5.48-2.84L461.8 596.5Z"/>
  </symbol>
  <symbol id="ge-logo-small" viewBox="0 0 498 618">
    <path d="M243.8 237a46.7 46.7 0 1 1 10 93 46.7 46.7 0 0 1-10-93M485 458c-17-17-44.5-17-61.6 0a248.3 248.3 0 0 1-19.6 17.7L349 381.1a140 140 0 0 1-65.7 38l54.5 94.6c-57.1 22-120.9 22-178 0l58-100.5c4-7 12-11 20-10.2a119.6 119.6 0 0 0 131-119.5c0-50-30.6-92.8-74.1-110.9a20.6 20.6 0 0 1-12.6-19v-24.8h7.1c8.6 0 15.6-7 15.6-15.6v-71A42.2 42.2 0 0 0 262.7 0H235a42.2 42.2 0 0 0-42 42.2v71c0 8.6 7 15.6 15.6 15.6h7v24.8c0 8.3-4.9 15.8-12.5 19A120.2 120.2 0 0 0 151 353a20.3 20.3 0 0 1 1 22.3L94 475.7c-6.6-5.3-13-11-19.2-17.2a44.4 44.4 0 0 0-62.3-.2 43.6 43.6 0 0 0 .3 61.3 331.4 331.4 0 0 0 236.1 97.8c89.2 0 173-34.7 236.1-97.8 17-17 17-44.6 0-61.6"/>
  </symbol>
  <symbol id="pixel-logo" viewBox="0 0 50 70">
    <path d="M20 0h10v10H20z" fill="#000a" shape-rendering="crispEdges"/>
    <path d="M20 10h10v10H20zM10 20h10v10H10zM30 20h10v10H30zM20 30h10v10H20zM0 40h10v10H0z" shape-rendering="crispEdges"/>
    <path d="M10 40h10v10H10zM30 40h10v10H30z" fill="#000b" shape-rendering="crispEdges"/>
    <path d="M40 40h10v10H40zM10 50h10v10H10zM20 50h10v10H20zM30 50h10v10H30zM0 60h10v10H0zM40 60h10v10H40z" shape-rendering="crispEdges"/>
  </symbol>
  <symbol id="geu" viewBox="0 0 256 238">
    <path d="M77.8 199.8c-14.8-.3-29.2-3.5-42.3-9.4l-4.6 9.1a18 18 0 0 1-4 5.2l-19 17.6a1 1 0 0 1-1.8-1l3.5-27.2c.3-2 .9-4 1.8-5.7L16 179c-4.5-3.3-8.7-6.9-12.7-10.9a11.2 11.2 0 0 1 0-16 11.3 11.3 0 0 1 16 0c2.5 2.6 5.1 5 7.9 7l28.9-57c1-2 .8-4.6-.6-6.4A30.2 30.2 0 0 1 67.2 50c2.2-1 3.6-3.3 3.6-5.7v-3.2c0-.7-.6-1.3-1.3-1.3h-1.2a3.5 3.5 0 0 1-3.5-3.5V11.6C64.8 5.2 70 0 76.4 0h25.7c27.6 0 33.3 10.1 33.3 34.6v38.9c0 24.4-5.7 34.5-33.3 34.5H84.5l-4.6.1a6.3 6.3 0 0 0-5.7 3.4l-29.5 58.3a85.7 85.7 0 0 0 33 7.6v-19c0-23.2 7-31.7 27.9-31.7 20.8 0 27.5 8.5 27.5 31.7v.7c0 4.2-1.2 5.3-5.4 5.3h-9.2c-4.2 0-5.3-1.1-5.3-5.3v-4.2c0-5.8-2.5-8-7.5-8s-7.5 2.2-7.5 8v54.4c0 5.8 2.6 8.1 8 8.1s7.9-2.3 7.9-8v-11.7c0-2-.6-2.6-2.6-2.6h-1.8c-4.1 0-5.3-1.2-5.3-5.3v-9.5c0-4.2 1.2-5.4 5.3-5.4H128c4.2 0 5.3 1.2 5.3 5.4v25.6c0 23.2-6.9 31.7-27.7 31.7-21 0-27.8-8.5-27.8-31.7v-6Zm1.4-135.2h-.4a13 13 0 0 0 .4 26v-26Zm22.5-44.4c-2 0-2.6.6-2.6 2.6v62.5c0 1.8.6 2.6 2.6 2.6h1.6c8 0 11.6-3.8 11.6-13.1V33.3c0-9.4-3.6-13.1-11.6-13.1h-1.6Zm86.7 0h-9c-2 0-2.6.6-2.6 2.6v79.9c0 4.2-1.1 5.3-5.3 5.3h-9.2c-4.2 0-5.3-1.1-5.3-5.3v-80c0-2-.6-2.5-2.6-2.5h-9c-4.1 0-5.3-1.2-5.3-5.3V5.4c0-4.2 1.2-5.4 5.3-5.4h43c4.1 0 5.3 1.2 5.3 5.4v9.5c0 4.1-1.2 5.3-5.3 5.3Zm47.5-14.8c0-4.2 1.1-5.4 5.3-5.4h9.2c4.2 0 5.3 1.2 5.3 5.4v72.4c0 23.2-6.9 31.7-27.7 31.7-21 0-27.8-8.5-27.8-31.7V5.4c0-4.2 1.1-5.4 5.3-5.4h9.2c4.2 0 5.3 1.2 5.3 5.4v75.8c0 5.8 2.5 8.1 8 8.1 5.3 0 7.9-2.3 7.9-8v-76Zm-71.6 145.4v16.1c0 1.9.6 2.6 2.6 2.6h17.9c4.1 0 5.3 1.1 5.3 5.3v9.5c0 4.2-1.2 5.4-5 5.4h-18.2c-2 0-2.6.5-2.6 2.5v21c0 2 .6 2.7 2.6 2.7h19.6c4.2 0 5.3 1.1 5.3 5.3v9.5c0 4.2-1.1 5.3-5.3 5.3h-36.7c-4.2 0-5.4-1.1-5.4-5.3v-97.3c0-4.2 1.2-5.4 5.4-5.4h36.7c4.2 0 5.3 1.2 5.3 5.4v9.5c0 4.1-1.1 5.3-5.3 5.3h-19.6c-2 0-2.6.6-2.6 2.6Zm71.7-17.4c0-4.2 1.2-5.4 5.3-5.4h9.3c4.1 0 5.3 1.2 5.3 5.4v72.4c0 23.2-7 31.7-27.8 31.7-20.9 0-27.8-8.5-27.8-31.7v-72.4c0-4.2 1.2-5.4 5.3-5.4h9.3c4.1 0 5.3 1.2 5.3 5.4v75.8c0 5.8 2.4 8.1 7.9 8.1 5.3 0 8-2.3 8-8v-76Z"/>
  </symbol>
  <symbol id="instagram" viewBox="0 0 417 417">
    <path d="M366.682 140.33v136.007c0 49.863-40.483 90.345-90.346 90.345H140.33c-49.863 0-90.346-40.482-90.346-90.345V140.33c0-49.863 40.483-90.346 90.346-90.346h136.006c49.863 0 90.346 40.483 90.346 90.346Zm-158.349-21.187c-49.225 0-89.19 39.965-89.19 89.19 0 49.226 39.965 89.19 89.19 89.19 49.226 0 89.19-39.964 89.19-89.19 0-49.225-39.964-89.19-89.19-89.19Zm0 45.225c24.265 0 43.966 19.7 43.966 43.966 0 24.265-19.7 43.965-43.966 43.965-24.265 0-43.965-19.7-43.965-43.965 0-24.266 19.7-43.966 43.965-43.966Zm91.224-70.697c-12.51 0-22.667 10.156-22.667 22.667 0 12.51 10.157 22.667 22.667 22.667 12.511 0 22.668-10.157 22.668-22.667 0-12.511-10.157-22.667-22.668-22.667Z"/>
  </symbol>
  <symbol id="facebook" viewBox="0 0 417 417">
    <path d="M187.5 366.682h-47.17c-49.863 0-90.346-40.482-90.346-90.345V140.33c0-49.863 40.483-90.346 90.346-90.346h136.006c49.863 0 90.346 40.483 90.346 90.346v136.006c0 49.863-40.483 90.345-90.346 90.345h-47.17V246.118c12.396.039 24.183.078 33.374.1 11.498.03 20.857-9.282 20.886-20.78.03-11.498-9.283-20.857-20.78-20.886-9.219-.023-21.046-.062-33.48-.101v-18.774c0-5.162 3.161-9.643 8.252-9.643 19.647 0 15.123.06 25.174.06 11.5 0 20.834-9.335 20.834-20.834 0-11.498-9.335-20.833-20.834-20.833-10.05 0-5.527-.06-25.174-.06-28.718 0-49.918 22.193-49.918 51.31v18.664c-5.103-.009-9.864-.014-14.095-.014-11.498 0-20.833 9.336-20.833 20.834s9.335 20.833 20.833 20.833c4.231 0 8.992.005 14.095.014v120.674Z"/>
  </symbol>
  <symbol id="linkedin" viewBox="0 0 417 417">
    <path d="M366.682 140.33v136.007c0 49.863-40.483 90.345-90.346 90.345H140.33c-49.863 0-90.346-40.482-90.346-90.345V140.33c0-49.863 40.483-90.346 90.346-90.346h136.006c49.863 0 90.346 40.483 90.346 90.346Zm-229.75 23.02c14.953 0 27.073-12.122 27.073-27.074 0-14.953-12.12-27.074-27.073-27.074-14.953 0-27.074 12.12-27.074 27.074 0 14.952 12.121 27.074 27.074 27.074Zm169.876 137.96v-57.82c0-25.135.281-70.884-48.687-70.884-22.114 0-32.499 8.095-39.488 18.583v-10.422c0-3.4-2.756-6.156-6.156-6.156H182.9a6.156 6.156 0 0 0-6.155 6.156V301.31a6.156 6.156 0 0 0 6.155 6.156h29.577a6.156 6.156 0 0 0 6.156-6.156v-64.632c.768-8.684 4.591-28.035 23.438-28.035 24.297 0 21.845 28.272 21.845 36.63v56.037a6.156 6.156 0 0 0 6.156 6.156h30.581a6.156 6.156 0 0 0 6.155-6.156Zm-148.932-.54V181.307a6.695 6.695 0 0 0-6.695-6.695h-28.499a6.695 6.695 0 0 0-6.695 6.695V300.77a6.696 6.696 0 0 0 6.695 6.695h28.5a6.696 6.696 0 0 0 6.694-6.695Z"/>
  </symbol>
  <symbol id="reddit" viewBox="0 0 417 417">
    <path d="M35.74 251.372C14.41 239.252.003 216.322.003 190.055c0-38.896 31.576-70.474 70.477-70.474 13.09 0 25.347 3.577 35.855 9.803 24.785-14.868 54.583-24.51 86.933-26.916 7.756-21.619 18.144-36.324 32.129-46.358 9.795-7.03 21.59-11.86 36.247-14.58 7.113-16.35 23.419-27.796 42.376-27.796 25.488 0 46.184 20.695 46.184 46.183 0 25.489-20.696 46.182-46.184 46.182-16.898 0-31.676-9.087-39.733-22.634-5.606 1.431-10.429 3.506-14.598 6.497-4.792 3.438-8.52 8.039-11.684 13.844 27.035 3.672 51.97 12.436 73.269 25.04 10.298-5.895 22.223-9.265 34.922-9.265 38.9 0 70.476 31.578 70.476 70.474 0 25.478-13.553 47.817-33.827 60.196-4.4 74.936-80.492 134.68-173.593 134.68-92.629 0-168.43-59.15-173.513-133.56Zm70.757-47.4c-7.073 8.078-8.83 26.633-6.49 37.213 1.598 7.229 6.139 14.408 12.75 16.82 7.544 2.752 29.506 4.528 37.844-3.086 8.39-7.664 6.832-32.949 4.762-43.06-1.497-7.356-7.002-15.064-14.035-17.845-15.28-6.041-27.185 1.225-34.83 9.959Zm39.593 83.199c1.507 9.594 10.097 17.319 15.2 22 11.343 10.41 26.363 17.062 46.777 17.062 20.415 0 32.17-4.112 47.49-17.606 8.79-7.745 11.986-10.555 15.532-21.456-3.707-9.716-38.428-10.494-62.75-10.494-23.52 0-59.646 1.398-62.249 10.494Zm164.09-83.198c-7.645-8.734-19.54-16-34.821-9.959-7.033 2.78-12.538 10.49-14.045 17.845-2.07 10.111-3.627 35.396 4.762 43.06 8.338 7.614 30.3 5.838 37.845 3.085 6.61-2.411 11.152-9.59 12.749-16.819 2.35-10.58.583-29.135-6.49-37.212Z"/>
  </symbol>
</svg>
