<?xml version="1.0" encoding="UTF-8" standalone="no"?><!DOCTYPE svg PUBLIC "-//W3C//DTD SVG 1.1//EN" "http://www.w3.org/Graphics/SVG/1.1/DTD/svg11.dtd"><svg width="100%" height="100%" viewBox="0 0 650 570" version="1.1" xmlns="http://www.w3.org/2000/svg" xmlns:xlink="http://www.w3.org/1999/xlink" xml:space="preserve" xmlns:serif="http://www.serif.com/" style="fill-rule:evenodd;clip-rule:evenodd;stroke-linejoin:round;stroke-miterlimit:2;"><path d="M650,70l-0,429.25c-0,38.634 -31.366,70 -70,70l-510,-0c-38.634,-0 -70,-31.366 -70,-70l-0,-429.25c-0,-38.634 31.366,-70 70,-70l510,-0c38.634,-0 70,31.366 70,70Zm-325,474.275c60.932,-22.278 123.352,-3.22 254.001,-0.299c12.1,0.269 23.798,-4.35 32.451,-12.812c8.653,-8.463 13.53,-20.056 13.53,-32.159c0.018,-98.799 0.018,-332.689 0.018,-430.179c-0,-23.93 -18.729,-43.675 -42.625,-44.938c-107.703,-5.709 -185.379,-30.702 -257.375,1.087c-71.996,-31.789 -149.672,-6.796 -257.375,-1.087c-23.896,1.263 -42.625,21.008 -42.625,44.938c0,97.49 0,331.38 0.018,430.179c-0,12.103 4.877,23.696 13.53,32.159c8.653,8.462 20.351,13.081 32.451,12.812c130.649,-2.921 193.069,-21.979 254.001,0.299Z"/><g><path d="M493.155,322.888c0.428,2.859 0.428,6.433 -0.429,10.436c-0.715,4.145 -1.859,8.291 -3.574,12.436c-1.715,4.146 -3.717,8.006 -6.147,11.293c-2.43,3.431 -5.003,5.718 -8.005,7.291c-2.859,1.429 -5.432,2.144 -7.577,2.144c-2.144,0 -4.574,-0.429 -7.29,-1.429c-2.43,-0.715 -5.432,-1.43 -9.006,-2.002c-3.574,-0.571 -7.29,-0.714 -11.007,-0.429c-3.717,0.429 -7.433,1.144 -11.15,2.288c-3.717,1.143 -6.862,3.288 -9.578,6.147c-5.718,6.003 -9.149,12.865 -10.149,20.584c-1.001,7.72 0.143,15.01 3.288,22.015c2.43,4.86 2.001,9.577 -1.144,14.438c-1.429,1.858 -3.717,3.859 -6.862,6.004c-3.145,2.001 -6.575,3.859 -10.292,5.575c-3.717,1.715 -7.576,3.002 -11.722,4.002c-4.146,1.001 -7.719,1.43 -10.864,1.43c-2.144,-0 -4.289,-0.858 -6.147,-2.573c-1.858,-1.716 -3.288,-3.574 -4.003,-5.432l-0.428,-0c-2.717,-7.434 -7.148,-14.01 -13.581,-19.299c-6.433,-5.432 -13.866,-8.148 -22.3,-8.148c-8.148,0 -15.582,2.716 -22.3,8.148c-6.576,5.432 -11.293,11.722 -14.009,19.013c-1.144,2.859 -3.002,5.003 -5.432,6.289c-2.431,1.287 -5.004,2.002 -8.006,2.002c-3.43,-0 -7.147,-0.572 -11.436,-1.859c-4.288,-1.143 -8.434,-2.716 -12.722,-4.574c-4.289,-1.858 -8.005,-3.86 -11.436,-6.29c-3.431,-2.43 -5.861,-4.86 -7.577,-7.29c-1.143,-1.716 -1.858,-3.717 -2.001,-6.004c-0.143,-2.287 0.858,-5.432 2.716,-9.578c2.716,-5.575 3.717,-11.865 3.002,-19.012c-0.572,-7.148 -3.717,-13.723 -9.292,-19.727c-3.431,-3.574 -7.433,-6.004 -12.293,-7.005c-4.861,-1.001 -9.435,-1.572 -13.724,-1.286c-5.003,0.285 -10.292,1.143 -15.581,2.859c-3.431,1 -6.719,0.714 -10.15,-0.715c-2.716,-1.001 -5.146,-3.145 -7.433,-6.719c-2.287,-3.574 -4.289,-7.433 -6.147,-11.579c-1.715,-4.145 -3.002,-8.434 -4.003,-13.008c-1,-4.575 -1.143,-8.148 -0.714,-11.007c0.714,-5.29 3.145,-8.72 7.29,-10.15c7.291,-2.859 13.723,-7.576 19.584,-14.295c5.718,-6.576 8.72,-14.009 8.72,-22.3c0,-8.434 -2.859,-15.868 -8.72,-22.015c-5.861,-6.289 -12.293,-10.864 -19.584,-13.723c-2.144,-0.715 -4.002,-2.43 -5.432,-5.289c-1.429,-2.859 -2.144,-5.575 -2.144,-8.434c-0,-3.145 0.429,-6.576 1.429,-10.435c1.001,-3.86 2.287,-7.577 3.717,-11.293c1.572,-3.574 3.431,-6.862 5.432,-10.007c2.001,-3.145 4.289,-5.289 6.719,-6.719c1.858,-1.143 3.716,-1.715 5.575,-1.429c1.858,0.286 3.717,0.715 6.004,1.429c7.29,2.859 14.724,3.717 22.586,2.716c7.862,-1.143 14.724,-4.574 20.728,-10.292c2.859,-2.859 5.003,-6.433 6.289,-10.721c1.287,-4.289 2.145,-8.434 2.574,-12.437c0.285,-4.145 0.285,-7.862 -0,-11.15c-0.429,-3.431 -0.715,-5.718 -0.858,-7.291c-0.429,-1.429 -0.858,-3.144 -1.287,-5.003c-0.429,-1.858 -0.143,-3.574 0.572,-5.003c1.43,-3.431 4.003,-6.29 7.719,-8.863c3.717,-2.573 7.72,-4.717 12.151,-6.29c4.289,-1.715 8.577,-3.002 12.723,-3.716c4.145,-0.858 7.433,-1.287 9.72,-1.287c3.145,-0 5.575,1.001 7.434,3.002c1.858,2.001 3.002,4.146 3.716,6.29c2.717,6.575 7.005,12.293 13.009,17.154c6.004,5.003 13.151,7.433 21.3,7.433c8.434,0 15.867,-2.287 22.443,-7.004c6.575,-4.718 11.15,-10.722 13.723,-17.869c1.001,-1.858 2.43,-3.86 4.574,-6.004c2.002,-2.001 4.146,-3.002 6.29,-3.002c3.431,-0 7.005,0.429 11.007,1.429c4.003,1.001 7.863,2.288 11.722,4.003c3.86,1.716 7.434,3.86 10.722,6.576c3.287,2.716 5.861,5.575 7.719,8.72c1.143,1.858 1.572,4.002 1.143,6.29c-0.428,2.287 -1,3.859 -1.429,4.86c-3.145,7.004 -4.146,14.295 -2.859,22.014c1.144,7.72 4.717,14.438 10.435,20.299c5.718,5.718 12.866,9.006 21.3,9.578c8.434,0.572 16.296,-0.858 23.444,-4.146c1.858,-1.143 4.288,-1.715 7.004,-1.429c2.716,0.286 5.147,1.286 7.005,3.288c3.574,3.43 6.861,8.434 9.578,15.438c2.716,6.862 4.717,13.866 5.575,20.728c0.428,4.146 -0.143,7.291 -2.002,9.578c-1.858,2.287 -3.716,3.716 -5.575,4.574c-7.433,2.716 -13.866,7.291 -19.155,14.009c-5.289,6.719 -8.005,14.152 -8.005,22.586c-0,8.149 2.287,15.439 6.718,21.586c4.432,6.147 10.293,10.578 17.583,13.151c1.716,1.001 3.145,1.859 4.289,2.859c3.431,2.287 5.289,5.147 6.29,8.577Zm-168.253,32.45c10.864,0 21.157,-2.001 30.734,-6.147c9.578,-4.145 18.012,-9.72 25.16,-17.011c7.147,-7.29 12.722,-15.582 16.868,-25.159c4.145,-9.578 6.147,-19.727 6.147,-30.592c-0,-10.864 -2.002,-21.013 -6.147,-30.591c-4.146,-9.578 -9.721,-17.869 -16.868,-25.016c-7.148,-7.148 -15.439,-12.723 -25.16,-16.868c-9.577,-4.146 -19.87,-6.147 -30.734,-6.147c-10.864,-0 -21.014,2.001 -30.591,6.147c-9.578,4.145 -17.869,9.72 -25.017,16.868c-7.147,7.147 -12.722,15.438 -16.868,25.016c-4.145,9.578 -6.147,19.727 -6.147,30.591c0,10.865 2.002,21.014 6.147,30.592c4.146,9.577 9.721,17.869 16.868,25.159c7.148,7.291 15.439,12.866 25.017,17.011c9.577,4.146 19.727,6.147 30.591,6.147Z" style="stroke:#000;stroke-width:9.5px;"/></g></svg>