<svg xmlns="http://www.w3.org/2000/svg" xml:space="preserve" style="fill-rule:evenodd;clip-rule:evenodd;stroke-linejoin:round;stroke-miterlimit:2" viewBox="0 0 650 570">
  <path d="M525 69h55c39 0 70 32 70 70v360c0 39-31 70-70 70H70c-39 0-70-31-70-70V139c0-38 31-70 70-70h55v40a55 55 0 0 0 110 0V69h180v40a55 55 0 0 0 110 0V69Zm100 151c0-24-20-45-45-45H70c-25 0-45 21-45 45v279c0 25 20 45 45 45h510c25 0 45-20 45-45V220ZM477 339v42c0 11-9 21-21 21h-41c-12 0-21-10-21-21v-42c0-12 9-21 21-21h41c12 0 21 9 21 21Zm110 0 1 42c0 11-10 21-21 21h-42c-11 0-21-10-21-21v-42c0-12 10-21 21-21h42c11 0 21 9 21 21Zm1-105v42c0 11-10 20-21 20h-42c-11 0-21-9-21-20v-42c0-12 10-21 21-21h42c11 0 21 9 21 21ZM367 339v42c0 11-10 21-21 21h-42c-11 0-21-10-21-21v-42c0-12 10-21 21-21h42c11 0 21 9 21 21Zm-221 0v42c0 11-10 21-21 21H83c-11 0-20-10-20-21v-42c0-12 9-21 20-21h42c11 0 21 9 21 21Zm110 0v42c0 11-9 21-21 21h-41c-12 0-21-10-21-21v-42c0-12 9-21 21-21h41c12 0 21 9 21 21ZM146 444v42c0 11-10 21-21 21H83c-11 0-20-10-20-21v-42c0-11 9-21 20-21h42c11 0 21 10 21 21Zm110 0v42c0 11-9 21-21 21h-41c-12 0-21-10-21-21v-42c0-11 9-21 21-21h41c12 0 21 10 21 21Zm111 0v42c0 11-10 21-21 21h-42c-11 0-21-10-21-21v-42c0-11 10-21 21-21h42c11 0 21 10 21 21ZM256 234v42c0 11-9 20-21 20h-41c-12 0-21-9-21-20v-42c0-12 9-21 21-21h41c12 0 21 9 21 21Zm111 0v42c0 11-10 20-21 20h-42c-11 0-21-9-21-20v-42c0-12 10-21 21-21h42c11 0 21 9 21 21Zm110 0v42c0 11-9 20-21 20h-41c-12 0-21-9-21-20v-42c0-12 9-21 21-21h41c12 0 21 9 21 21ZM210 30v79a30 30 0 0 1-60 0V30a30 30 0 0 1 60 0Zm290 0v79a30 30 0 0 1-60 0V30a30 30 0 0 1 60 0Z"/>
</svg>
