<?xml version="1.0" encoding="UTF-8" standalone="no"?><!DOCTYPE svg PUBLIC "-//W3C//DTD SVG 1.1//EN" "http://www.w3.org/Graphics/SVG/1.1/DTD/svg11.dtd"><svg width="100%" height="100%" viewBox="0 0 650 570" version="1.1" xmlns="http://www.w3.org/2000/svg" xmlns:xlink="http://www.w3.org/1999/xlink" xml:space="preserve" xmlns:serif="http://www.serif.com/" style="fill-rule:evenodd;clip-rule:evenodd;stroke-linejoin:round;stroke-miterlimit:2;"><path d="M525.221,69.25l54.779,-0c38.634,-0 70,31.366 70,70l0,360c0,38.634 -31.366,70 -70,70l-510,0c-38.634,0 -70,-31.366 -70,-70l-0,-360c-0,-38.634 31.366,-70 70,-70l54.779,-0l-0,39.3c-0,30.328 24.622,54.95 54.95,54.95c30.327,0 54.95,-24.622 54.95,-54.95l-0,-39.3l180.642,-0l0,39.3c0,30.328 24.623,54.95 54.95,54.95c30.328,0 54.95,-24.622 54.95,-54.95l0,-39.3Zm99.779,151.166c0,-24.836 -20.164,-45 -45,-45l-510,0c-24.836,0 -45,20.164 -45,45l0,278.879c0,24.836 20.164,45 45,45l510,-0c24.836,-0 45,-20.164 45,-45l0,-278.879Zm-147.931,118.532l0,41.815c0,11.491 -9.328,20.82 -20.819,20.82l-41.639,-0c-11.491,-0 -20.819,-9.329 -20.819,-20.82l-0,-41.815c-0,-11.491 9.328,-20.82 20.819,-20.82l41.639,0c11.491,0 20.819,9.329 20.819,20.82Zm110.431,-0l0,41.815c0,11.491 -9.329,20.82 -20.819,20.82l-41.639,-0c-11.491,-0 -20.82,-9.329 -20.82,-20.82l0,-41.815c0,-11.491 9.329,-20.82 20.82,-20.82l41.639,0c11.49,0 20.819,9.329 20.819,20.82Zm0,-105.223l0,41.816c0,11.49 -9.329,20.819 -20.819,20.819l-41.639,0c-11.491,0 -20.82,-9.329 -20.82,-20.819l0,-41.816c0,-11.491 9.329,-20.819 20.82,-20.819l41.639,-0c11.49,-0 20.819,9.328 20.819,20.819Zm-220.861,105.223l-0,41.815c-0,11.491 -9.329,20.82 -20.82,20.82l-41.638,-0c-11.491,-0 -20.82,-9.329 -20.82,-20.82l0,-41.815c0,-11.491 9.329,-20.82 20.82,-20.82l41.638,0c11.491,0 20.82,9.329 20.82,20.82Zm-220.861,-0l-0,41.815c-0,11.491 -9.329,20.82 -20.82,20.82l-41.639,-0c-11.49,-0 -20.819,-9.329 -20.819,-20.82l-0,-41.815c-0,-11.491 9.329,-20.82 20.819,-20.82l41.639,0c11.491,0 20.82,9.329 20.82,20.82Zm110.43,-0l0,41.815c0,11.491 -9.328,20.82 -20.819,20.82l-41.639,-0c-11.491,-0 -20.819,-9.329 -20.819,-20.82l-0,-41.815c-0,-11.491 9.328,-20.82 20.819,-20.82l41.639,0c11.491,0 20.819,9.329 20.819,20.82Zm-110.43,105.222l-0,41.816c-0,11.491 -9.329,20.82 -20.82,20.82l-41.639,-0c-11.49,-0 -20.819,-9.329 -20.819,-20.82l-0,-41.816c-0,-11.49 9.329,-20.819 20.819,-20.819l41.639,-0c11.491,-0 20.82,9.329 20.82,20.819Zm110.43,0l0,41.816c0,11.491 -9.328,20.82 -20.819,20.82l-41.639,-0c-11.491,-0 -20.819,-9.329 -20.819,-20.82l-0,-41.816c-0,-11.49 9.328,-20.819 20.819,-20.819l41.639,-0c11.491,-0 20.819,9.329 20.819,20.819Zm110.431,0l-0,41.816c-0,11.491 -9.329,20.82 -20.82,20.82l-41.638,-0c-11.491,-0 -20.82,-9.329 -20.82,-20.82l0,-41.816c0,-11.49 9.329,-20.819 20.82,-20.819l41.638,-0c11.491,-0 20.82,9.329 20.82,20.819Zm-110.431,-210.445l0,41.816c0,11.49 -9.328,20.819 -20.819,20.819l-41.639,0c-11.491,0 -20.819,-9.329 -20.819,-20.819l-0,-41.816c-0,-11.491 9.328,-20.819 20.819,-20.819l41.639,-0c11.491,-0 20.819,9.328 20.819,20.819Zm110.431,-0l-0,41.816c-0,11.49 -9.329,20.819 -20.82,20.819l-41.638,0c-11.491,0 -20.82,-9.329 -20.82,-20.819l0,-41.816c0,-11.491 9.329,-20.819 20.82,-20.819l41.638,-0c11.491,-0 20.82,9.328 20.82,20.819Zm110.43,-0l0,41.816c0,11.49 -9.328,20.819 -20.819,20.819l-41.639,0c-11.491,0 -20.819,-9.329 -20.819,-20.819l-0,-41.816c-0,-11.491 9.328,-20.819 20.819,-20.819l41.639,-0c11.491,-0 20.819,9.328 20.819,20.819Zm-267.39,-203.775l-0,78.6c-0,16.53 -13.42,29.95 -29.95,29.95c-16.53,-0 -29.95,-13.42 -29.95,-29.95l-0,-78.6c-0,-16.53 13.42,-29.95 29.95,-29.95c16.53,-0 29.95,13.42 29.95,29.95Zm290.542,-0l0,78.6c0,16.53 -13.42,29.95 -29.95,29.95c-16.53,-0 -29.95,-13.42 -29.95,-29.95l0,-78.6c0,-16.53 13.42,-29.95 29.95,-29.95c16.53,-0 29.95,13.42 29.95,29.95Z"/></svg>