<svg xmlns="http://www.w3.org/2000/svg" xml:space="preserve" style="fill-rule:evenodd;clip-rule:evenodd;stroke-linejoin:round;stroke-miterlimit:2" viewBox="0 0 650 570">
  <path d="M650 70v429.3a70 70 0 0 1-70 70H70a70 70 0 0 1-70-70V70A70 70 0 0 1 70 0h510a70 70 0 0 1 70 70ZM325 544.3c61-22.3 123.4-3.2 254-.3a45 45 0 0 0 46-45V68.8a45 45 0 0 0-42.6-45C474.7 18.3 397-6.7 325 25c-72-31.8-149.7-6.8-257.4-1.1a45 45 0 0 0-42.6 45V499a45 45 0 0 0 46 45c130.6-3 193-22 254 .3Z"/>
  <path d="M493.2 322.9c.4 2.8.4 6.4-.5 10.4a58.2 58.2 0 0 1-9.7 23.8c-2.4 3.4-5 5.7-8 7.2a17.5 17.5 0 0 1-7.6 2.2c-2.1 0-4.6-.4-7.3-1.4a51 51 0 0 0-9-2 47.1 47.1 0 0 0-22.1 1.8 22.1 22.1 0 0 0-9.6 6.2c-5.7 6-9.2 12.8-10.2 20.5-1 7.8.2 15 3.3 22 2.5 5 2 9.6-1.1 14.5a30 30 0 0 1-6.9 6c-3.1 2-6.6 3.9-10.3 5.6a62.9 62.9 0 0 1-22.6 5.4 9 9 0 0 1-6.1-2.6 15.2 15.2 0 0 1-4-5.4h-.4c-2.7-7.4-7.2-14-13.6-19.3a34.6 34.6 0 0 0-44.6 0 45 45 0 0 0-14 19c-1.2 2.9-3 5-5.5 6.3-2.4 1.3-5 2-8 2-3.4 0-7.1-.6-11.4-1.8a90.7 90.7 0 0 1-24.2-11 31 31 0 0 1-7.5-7.2 12 12 0 0 1-2-6c-.2-2.3.8-5.4 2.7-9.6a34.6 34.6 0 0 0 3-19 32.5 32.5 0 0 0-9.3-19.7c-3.4-3.6-7.4-6-12.3-7a51.7 51.7 0 0 0-29.3 1.5 15.5 15.5 0 0 1-17.6-7.4 76.5 76.5 0 0 1-10.1-24.6 29 29 0 0 1-.7-11c.7-5.3 3.1-8.7 7.2-10.1a50.2 50.2 0 0 0 19.6-14.3c5.7-6.6 8.7-14 8.7-22.3 0-8.5-2.8-15.9-8.7-22a53.2 53.2 0 0 0-19.6-13.8c-2.1-.7-4-2.4-5.4-5.3a18.5 18.5 0 0 1-2.1-8.4c0-3.1.4-6.6 1.4-10.4a73.1 73.1 0 0 1 9.1-21.3 20 20 0 0 1 6.8-6.7 8.2 8.2 0 0 1 5.5-1.5c1.9.3 3.8.7 6 1.5a45 45 0 0 0 22.6 2.7 37.2 37.2 0 0 0 20.8-10.3c2.8-2.9 5-6.5 6.2-10.7 1.3-4.3 2.2-8.5 2.6-12.5.3-4.1.3-7.8 0-11.1l-.8-7.3c-.5-1.4-.9-3.2-1.3-5a7 7 0 0 1 .5-5c1.5-3.5 4-6.3 7.8-8.9a63.7 63.7 0 0 1 24.9-10c4-.9 7.4-1.3 9.7-1.3 3.1 0 5.5 1 7.4 3 1.8 2 3 4.2 3.7 6.3a43 43 0 0 0 13 17.2c6 5 13.2 7.4 21.3 7.4 8.5 0 15.9-2.3 22.5-7a37.2 37.2 0 0 0 13.7-17.9c1-1.8 2.4-3.8 4.6-6 2-2 4.1-3 6.2-3 3.5 0 7 .4 11 1.4 4 1 8 2.3 11.8 4a46 46 0 0 1 10.7 6.6c3.3 2.7 5.9 5.6 7.7 8.7 1.2 2 1.6 4 1.2 6.3-.5 2.3-1 3.9-1.5 4.9a37.4 37.4 0 0 0 7.6 42.3c5.7 5.7 12.9 9 21.3 9.6 8.4.6 16.3-.9 23.5-4.2a11 11 0 0 1 7-1.4 11 11 0 0 1 7 3.3c3.5 3.4 6.8 8.4 9.5 15.4A86 86 0 0 1 493 226c.4 4.1-.1 7.3-2 9.5a15.8 15.8 0 0 1-5.6 4.6 42.6 42.6 0 0 0-19.1 14c-5.3 6.7-8 14.2-8 22.6a36.2 36.2 0 0 0 24.3 34.8 28 28 0 0 1 4.3 2.8c3.4 2.3 5.3 5.2 6.3 8.6Zm-168.3 32.4a76.6 76.6 0 0 0 55.9-23.1 82 82 0 0 0 16.9-25.2 76 76 0 0 0 6.1-30.6c0-10.8-2-21-6.1-30.6a79.6 79.6 0 0 0-42-41.8 76.6 76.6 0 0 0-30.8-6.2 79.6 79.6 0 0 0-72.5 48 76 76 0 0 0-6.1 30.6c0 10.9 2 21 6.1 30.6a82 82 0 0 0 16.9 25.2 77.6 77.6 0 0 0 55.6 23.1Z" style="stroke:#000;stroke-width:9.5px"/>
</svg>
