<svg xmlns="http://www.w3.org/2000/svg" xml:space="preserve" width="800" height="800" viewBox="0 0 214 260">
  <path d="m67 215 8-9-3-15 5-9 2-8-3-6 5 3 9-3 5-15 7-2-1-20 24-6 9-19-8-7-11 2-9-4-5-28 12-28V25l-5-11 4-11-3-1-12 10-10 1-17 29-15 8-11-1-9 4h-9L11 75l5 13 7 7 11-8 5-9 1-13-11 6 1-5 19-7 7 2 19-6-4 7-7-2-12 10 1 10 6 9-8 3-2-14-10 3-10 24-10-9h-6l-5-5-3 7-2 36 8 4 5 12-10 10-4 20 5 3 4-5 7 10 9 2 1 45 8-1 18 5 6 4 10-7 11-1-2-7-12-13zm55 25 5 6 10-28-4 1-11 21zm-41-7 9 5 3-9-11-9-1 13zm48-37-5-7-9-1-1-7-7-5-25 2-4 6 8 13v8l11 6 9 10 11 2 9-3 3-24zm8-160 5-3-7 1-8 5 8 5 2-8zm56 188-5-12 6-8 10-2 2-8-11-7 6-14h5l6-17-5-9 4-11-17-6-17 14 7 2-7 11v6l-11-17-17 19-6-1-2 5 7 22-2 8 5 9 7-2 11 3 12 17-6 8-14 3-10-8-8 1-2 15 21 10 15-2 4 5 14-22-10-8 8-4zm9-4-1 7h9l2-5-10-2z"/>
</svg>
