<svg xmlns="http://www.w3.org/2000/svg" viewBox="0 0 468.1 682.8">
  <path fill="#858585" d="M30.1 248h62.2c24 0 38.8-5.5 47.7-17.1 13.2-15.8 13.6-41.2 13.6-80.3V97.3c0-39-.4-64.5-13.6-80.3-8.9-11.5-23.6-17-47.7-17H30c-1.8 0-3 .6-3.8 1.4-.8.8-1.4 2-1.4 3.8v237.6c0 1.8.6 3 1.4 3.8.8.8 2 1.3 3.8 1.3ZM64.3 29h22c9.6 0 15.4 1.6 19.9 7 6.9 8.2 7.5 25 7.5 58.6v58.8c0 33.7-.6 50.3-7.5 58.6-4.5 5.4-10.3 7-20 7H64.3V29ZM377.8 251c24.4 0 40.1-6.4 49.8-17.7 11.3-13.2 14.1-29 14.1-52.7V5.2c0-1.9-.5-3-1.4-3.8-.8-.8-1.9-1.4-3.8-1.4h-29c-1.9 0-3 .6-3.8 1.4-.8.8-1.4 2-1.4 3.8v175.4c0 18.3-1.4 29.2-7.3 35.7-4 4.4-9.8 6.6-17.8 6.6-7.2 0-12.7-2-17-6.7-5.5-6.1-7.3-16.7-7.3-35.6V5.2c0-1.9-.5-3-1.3-3.8-.9-.8-2-1.4-3.9-1.4h-29c-1.9 0-3 .6-3.8 1.4-.8.8-1.4 2-1.4 3.8v175.4c0 25.6 3.5 41.6 13.6 52.7 10.6 11.6 26.5 17.8 50.7 17.8ZM174.8 31.3H212v211.5c0 1.8.5 3 1.4 3.8.8.8 2 1.3 3.8 1.3H249c2 0 3-.5 3.9-1.3.8-.8 1.3-2 1.3-3.8V31.3h37.3c2 0 3-.5 3.9-1.3.8-.8 1.4-2 1.4-3.8v-21c0-1.9-.6-3-1.4-3.8-.9-.8-2-1.4-3.9-1.4H174.8c-1.9 0-3 .6-3.9 1.4-.8.8-1.4 2-1.4 3.8v21c0 1.8.6 3 1.4 3.8.9.8 2 1.3 3.9 1.3Z"/>
  <path fill="#ed6873" d="m368.4 424.3 99.7-52.3-99.7-52.3c-129 50.2-139.8 50.2-268.8 0L0 372l99.6 52.3c129-50.2 139.8-50.2 268.9 0ZM99.6 449 0 501.3l99.6 52.2c129-50.1 139.8-50.1 268.9 0l99.6-52.2-99.6-52.3c-129 50.1-140 50.1-268.9 0ZM99.6 578.2 0 630.5l99.6 52.3c129-50.2 139.8-50.2 268.9 0l99.6-52.3-99.6-52.3c-129 50.2-140 50.2-268.9 0Z"/>
</svg>
