<?xml version="1.0" encoding="UTF-8" standalone="no"?>
<!DOCTYPE svg PUBLIC "-//W3C//DTD SVG 1.1//EN" "http://www.w3.org/Graphics/SVG/1.1/DTD/svg11.dtd">
<svg width="100%" height="100%" viewBox="0 0 492 684" version="1.1" xmlns="http://www.w3.org/2000/svg" xmlns:xlink="http://www.w3.org/1999/xlink" xml:space="preserve" xmlns:serif="http://www.serif.com/" style="fill-rule:evenodd;clip-rule:evenodd;stroke-linejoin:round;stroke-miterlimit:2;">
    <g transform="matrix(1,0,0,1,-87.8041,-52.0532)">
        <g transform="matrix(1.33333,0,0,1.33333,0,0)">
            <g transform="matrix(1,0,0,1,247.552,403.801)">
                <path d="M0,-215.703C18.464,-217.176 33.823,-201.817 32.35,-183.353C31.192,-168.824 19.422,-157.055 4.894,-155.898C-13.567,-154.428 -28.923,-169.783 -27.454,-188.244C-26.298,-202.773 -14.529,-214.544 0,-215.703M179.17,-13.846C169.026,-24.199 152.023,-23.782 141.74,-13.568C135.486,-7.356 128.91,-1.66 122.077,3.543L59.648,-122.982C48.067,-112.428 33.56,-105.047 17.51,-102.164L81.434,27.39C30.47,49.534 -27.987,49.198 -78.732,26.406L-10.667,-107.923C-8.186,-112.821 -3.132,-115.808 2.359,-115.8L2.449,-115.8C41.047,-115.8 72.448,-147.203 72.448,-185.801C72.448,-213.956 55.738,-238.279 31.715,-249.38C26.624,-251.733 23.449,-256.925 23.449,-262.533L23.449,-269.897C23.449,-271.469 24.723,-272.744 26.295,-272.744L29.135,-272.744C33.558,-272.744 37.144,-276.329 37.144,-280.752L37.144,-338.094C37.144,-352.822 25.205,-364.761 10.477,-364.761L-5.58,-364.761C-20.308,-364.761 -32.247,-352.822 -32.247,-338.094L-32.247,-280.752C-32.247,-276.329 -28.661,-272.744 -24.238,-272.744L-21.398,-272.744C-19.826,-272.744 -18.551,-271.469 -18.551,-269.897L-18.551,-262.533C-18.551,-256.925 -21.726,-251.733 -26.817,-249.381C-50.84,-238.279 -67.551,-213.957 -67.551,-185.801C-67.551,-170.267 -62.455,-155.908 -53.858,-144.286C-50.643,-139.941 -50.044,-134.196 -52.487,-129.374L-119.092,2.074C-125.412,-2.861 -131.502,-8.226 -137.314,-14.038C-147.467,-24.192 -163.93,-24.192 -174.084,-14.038C-184.237,-3.884 -184.237,12.579 -174.084,22.732C-164.92,31.896 -155.162,40.249 -144.909,47.777L-155.728,69.424C-157.799,73.568 -159.159,78.03 -159.751,82.624L-167.842,145.373C-168.136,147.651 -165.429,149.058 -163.733,147.508L-119.52,107.101C-115.779,103.682 -112.698,99.605 -110.432,95.073L-99.911,74.038C-68.143,88.325 -33.427,95.853 2.449,95.853C69.134,95.853 131.827,69.885 178.98,22.732C189.07,12.642 189.133,-3.678 179.17,-13.846" style="fill:white;fill-rule:nonzero;"/>
            </g>
        </g>
        <g transform="matrix(1.33333,0,0,1.33333,0,0)">
            <g transform="matrix(1,0,0,1,412.2,531.913)">
                <path d="M0,-45.488C-0.592,-50.082 -1.953,-54.545 -4.023,-58.688L-7.895,-66.434C-22.006,-56.307 -37.071,-47.597 -52.997,-40.392L-49.32,-33.039C-47.053,-28.507 -43.972,-24.43 -40.232,-21.011L3.982,19.396C5.677,20.946 8.385,19.539 8.091,17.261L0,-45.488Z" style="fill:white;fill-rule:nonzero;"/>
            </g>
        </g>
    </g>
</svg>
