<?xml version="1.0" encoding="UTF-8" standalone="no"?><!DOCTYPE svg PUBLIC "-//W3C//DTD SVG 1.1//EN" "http://www.w3.org/Graphics/SVG/1.1/DTD/svg11.dtd"><svg width="100%" height="100%" viewBox="0 0 256 238" version="1.1" xmlns="http://www.w3.org/2000/svg" xmlns:xlink="http://www.w3.org/1999/xlink" xml:space="preserve" xmlns:serif="http://www.serif.com/" style="fill-rule:evenodd;clip-rule:evenodd;stroke-linejoin:round;stroke-miterlimit:2;"><path d="M77.765,199.823c-14.809,-0.284 -29.127,-3.528 -42.28,-9.444l-4.565,9.126c-0.983,1.967 -2.32,3.736 -3.943,5.219l-19.182,17.531c-0.215,0.197 -0.468,0.284 -0.714,0.284c-0.597,-0 -1.159,-0.511 -1.069,-1.21l3.51,-27.225c0.257,-1.993 0.847,-3.929 1.746,-5.727l4.694,-9.392c-4.449,-3.266 -8.682,-6.89 -12.658,-10.866c-2.203,-2.202 -3.304,-5.089 -3.304,-7.976c0,-2.887 1.101,-5.774 3.304,-7.977c4.405,-4.405 11.548,-4.405 15.953,0c2.522,2.522 5.164,4.849 7.906,6.99l28.897,-57.03c1.06,-2.092 0.8,-4.585 -0.595,-6.47c-3.729,-5.042 -5.94,-11.272 -5.94,-18.012c-0,-12.215 7.25,-22.768 17.673,-27.584c2.208,-1.021 3.586,-3.274 3.586,-5.707l-0,-3.195c-0,-0.682 -0.553,-1.235 -1.235,-1.235l-1.232,0c-1.919,0 -3.475,-1.556 -3.475,-3.475l-0,-24.878c-0,-6.39 5.18,-11.57 11.57,-11.57l6.966,-0c0.266,-0 0.53,0.009 0.792,0.027c0.118,-0.002 0.24,-0.003 0.363,-0.003l17.568,-0c27.648,-0 33.264,10.08 33.264,34.56l0,38.88c0,24.48 -5.616,34.56 -33.264,34.56l-17.568,-0c-0.754,-0 -1.41,-0.038 -1.978,-0.124c-0.877,0.076 -1.764,0.115 -2.66,0.115l-0.039,0c-2.382,-0.003 -4.575,1.293 -5.652,3.418l-29.53,58.281c3.982,1.788 8.076,3.254 12.239,4.405l-0.002,0.068c6.661,1.848 13.647,2.913 20.854,3.088l0,-19.011c0,-23.184 6.912,-31.68 27.792,-31.68c20.88,-0 27.504,8.496 27.504,31.68l0,0.72c0,4.176 -1.152,5.328 -5.328,5.328l-9.216,-0c-4.176,-0 -5.328,-1.152 -5.328,-5.328l0,-4.176c0,-5.76 -2.448,-8.064 -7.488,-8.064c-5.04,-0 -7.488,2.304 -7.488,8.064l0,54.432c0,5.76 2.592,8.064 7.92,8.064c5.472,-0 7.92,-2.304 7.92,-8.064l0,-11.664c0,-2.016 -0.576,-2.592 -2.592,-2.592l-1.728,-0c-4.176,-0 -5.328,-1.152 -5.328,-5.328l0,-9.504c0,-4.176 1.152,-5.328 5.328,-5.328l18.288,-0c4.176,-0 5.328,1.152 5.328,5.328l0,25.632c0,23.184 -6.912,31.68 -27.792,31.68c-20.88,-0 -27.792,-8.496 -27.792,-31.68l0,-5.961Zm1.44,-135.177c-0.124,0.007 -0.248,0.015 -0.372,0.025c-6.304,0.503 -11.41,5.61 -11.912,11.913c-0.59,7.418 5.081,13.681 12.284,14.058l0,-25.996Zm22.464,-44.462c-2.016,-0 -2.592,0.576 -2.592,2.592l0,62.496c0,1.872 0.576,2.592 2.592,2.592l1.584,-0c8.064,-0 11.664,-3.744 11.664,-13.104l0,-41.472c0,-9.36 -3.6,-13.104 -11.664,-13.104l-1.584,-0Zm86.688,-0l-8.928,-0c-2.016,-0 -2.592,0.576 -2.592,2.592l0,79.92c0,4.176 -1.152,5.328 -5.328,5.328l-9.216,-0c-4.176,-0 -5.328,-1.152 -5.328,-5.328l0,-79.92c0,-2.016 -0.576,-2.592 -2.592,-2.592l-8.928,-0c-4.176,-0 -5.328,-1.152 -5.328,-5.328l0,-9.504c0,-4.176 1.152,-5.328 5.328,-5.328l42.912,-0c4.176,-0 5.328,1.152 5.328,5.328l0,9.504c0,4.176 -1.152,5.328 -5.328,5.328Zm47.52,-14.832c0,-4.176 1.152,-5.328 5.328,-5.328l9.216,-0c4.176,-0 5.328,1.152 5.328,5.328l0,72.432c0,23.184 -6.912,31.68 -27.792,31.68c-20.88,-0 -27.792,-8.496 -27.792,-31.68l0,-72.432c0,-4.176 1.152,-5.328 5.328,-5.328l9.216,-0c4.176,-0 5.328,1.152 5.328,5.328l0,75.888c0,5.76 2.448,8.064 7.92,8.064c5.328,-0 7.92,-2.304 7.92,-8.064l0,-75.888Zm-71.568,145.424l0,16.128c0,1.872 0.576,2.592 2.592,2.592l17.856,-0c4.176,-0 5.328,1.152 5.328,5.328l0,9.504c0,4.176 -1.152,5.328 -5.04,5.328l-18.144,-0c-2.016,-0 -2.592,0.576 -2.592,2.592l0,21.024c0,1.872 0.576,2.592 2.592,2.592l19.584,-0c4.176,-0 5.328,1.152 5.328,5.328l0,9.504c0,4.176 -1.152,5.328 -5.328,5.328l-36.72,-0c-4.176,-0 -5.328,-1.152 -5.328,-5.328l0,-97.344c0,-4.176 1.152,-5.328 5.328,-5.328l36.72,-0c4.176,-0 5.328,1.152 5.328,5.328l0,9.504c0,4.176 -1.152,5.328 -5.328,5.328l-19.584,-0c-2.016,-0 -2.592,0.576 -2.592,2.592Zm71.712,-17.424c0,-4.176 1.152,-5.328 5.328,-5.328l9.216,-0c4.176,-0 5.328,1.152 5.328,5.328l0,72.432c0,23.184 -6.912,31.68 -27.792,31.68c-20.88,-0 -27.792,-8.496 -27.792,-31.68l0,-72.432c0,-4.176 1.152,-5.328 5.328,-5.328l9.216,-0c4.176,-0 5.328,1.152 5.328,5.328l0,75.888c0,5.76 2.448,8.064 7.92,8.064c5.328,-0 7.92,-2.304 7.92,-8.064l0,-75.888Z"/></svg>