<?xml version="1.0" encoding="UTF-8" standalone="no"?>
<!DOCTYPE svg PUBLIC "-//W3C//DTD SVG 1.1//EN" "http://www.w3.org/Graphics/SVG/1.1/DTD/svg11.dtd">
<svg width="100%" height="100%" viewBox="0 0 2046 1182" version="1.1" xmlns="http://www.w3.org/2000/svg" xmlns:xlink="http://www.w3.org/1999/xlink" xml:space="preserve" xmlns:serif="http://www.serif.com/" style="fill-rule:evenodd;clip-rule:evenodd;stroke-linejoin:round;stroke-miterlimit:2;">
    <g transform="matrix(1.60105,-0.924369,0.924369,1.60105,468.995,631.778)">
        <path d="M0,-107.454C22.275,-109.817 40.962,-91.132 38.601,-68.856C36.881,-52.626 23.834,-39.578 7.604,-37.858C-14.669,-35.496 -33.354,-54.18 -30.995,-76.454C-29.276,-92.684 -16.23,-105.733 0,-107.454M180.912,58.251C168.152,45.493 147.469,45.493 134.709,58.251C129.976,62.984 125.044,67.399 119.947,71.511L78.985,0.562C65.679,14.221 48.699,24.281 29.655,29.12L70.575,99.996C27.709,116.503 -20.102,116.503 -62.969,99.996L-19.477,24.666C-16.407,19.349 -10.504,16.419 -4.389,16.974C-1.175,17.266 2.087,17.388 5.388,17.331C54.672,16.477 93.803,-23.365 93.803,-72.657C93.803,-110.095 70.823,-142.264 38.229,-155.808C32.485,-158.195 28.804,-163.88 28.804,-170.1L28.804,-188.686L34.108,-188.686C40.551,-188.686 45.774,-193.91 45.774,-200.353L45.774,-253.63C45.774,-271.103 31.61,-285.268 14.136,-285.268L-6.53,-285.268C-24.003,-285.268 -38.168,-271.103 -38.168,-253.63L-38.168,-200.353C-38.168,-193.91 -32.945,-188.686 -26.502,-188.686L-21.197,-188.686L-21.197,-170.1C-21.197,-163.873 -24.888,-158.192 -30.637,-155.802C-63.224,-142.255 -86.197,-110.089 -86.197,-72.656C-86.197,-53.269 -80.031,-35.297 -69.562,-20.59C-66.052,-15.659 -65.789,-9.119 -68.816,-3.877L-112.341,71.511C-117.312,67.5 -122.128,63.201 -126.754,58.599C-139.537,45.885 -160.832,45.585 -173.484,58.43C-186.064,71.202 -186.004,91.755 -173.306,104.454C-125.998,151.761 -63.1,177.814 3.803,177.814C70.706,177.814 133.604,151.761 180.912,104.454C193.67,91.695 193.67,71.009 180.912,58.251" style="fill-rule:nonzero;"/>
    </g>
    <g transform="matrix(1.60105,-0.924369,0.924369,1.60105,1491.86,1248.22)">
        <path d="M0,-107.454C22.275,-109.817 40.962,-91.132 38.601,-68.856C36.881,-52.626 23.834,-39.578 7.604,-37.858C-14.669,-35.496 -33.354,-54.18 -30.995,-76.454C-29.276,-92.684 -16.23,-105.733 0,-107.454M180.912,58.251C168.152,45.493 147.469,45.493 134.709,58.251C129.976,62.984 125.044,67.399 119.947,71.511L78.985,0.562C65.679,14.221 48.699,24.281 29.655,29.12L70.575,99.996C27.709,116.503 -20.102,116.503 -62.969,99.996L-19.477,24.666C-16.407,19.349 -10.504,16.419 -4.389,16.974C-1.175,17.266 2.087,17.388 5.388,17.331C54.672,16.477 93.803,-23.365 93.803,-72.657C93.803,-110.095 70.823,-142.264 38.229,-155.808C32.485,-158.195 28.804,-163.88 28.804,-170.1L28.804,-188.686L34.108,-188.686C40.551,-188.686 45.774,-193.91 45.774,-200.353L45.774,-253.63C45.774,-271.103 31.61,-285.268 14.136,-285.268L-6.53,-285.268C-24.003,-285.268 -38.168,-271.103 -38.168,-253.63L-38.168,-200.353C-38.168,-193.91 -32.945,-188.686 -26.502,-188.686L-21.197,-188.686L-21.197,-170.1C-21.197,-163.873 -24.888,-158.192 -30.637,-155.802C-63.224,-142.255 -86.197,-110.089 -86.197,-72.656C-86.197,-53.269 -80.031,-35.297 -69.562,-20.59C-66.052,-15.659 -65.789,-9.119 -68.816,-3.877L-112.341,71.511C-117.312,67.5 -122.128,63.201 -126.754,58.599C-139.537,45.885 -160.832,45.585 -173.484,58.43C-186.064,71.202 -186.004,91.755 -173.306,104.454C-125.998,151.761 -63.1,177.814 3.803,177.814C70.706,177.814 133.604,151.761 180.912,104.454C193.67,91.695 193.67,71.009 180.912,58.251" style="fill-rule:nonzero;"/>
    </g>
    <g transform="matrix(1.60105,-0.924369,0.924369,1.60105,1491.86,67.1154)">
        <path d="M0,-107.454C22.275,-109.817 40.962,-91.132 38.601,-68.856C36.881,-52.626 23.834,-39.578 7.604,-37.858C-14.669,-35.496 -33.354,-54.18 -30.995,-76.454C-29.276,-92.684 -16.23,-105.733 0,-107.454M180.912,58.251C168.152,45.493 147.469,45.493 134.709,58.251C129.976,62.984 125.044,67.399 119.947,71.511L78.985,0.562C65.679,14.221 48.699,24.281 29.655,29.12L70.575,99.996C27.709,116.503 -20.102,116.503 -62.969,99.996L-19.477,24.666C-16.407,19.349 -10.504,16.419 -4.389,16.974C-1.175,17.266 2.087,17.388 5.388,17.331C54.672,16.477 93.803,-23.365 93.803,-72.657C93.803,-110.095 70.823,-142.264 38.229,-155.808C32.485,-158.195 28.804,-163.88 28.804,-170.1L28.804,-188.686L34.108,-188.686C40.551,-188.686 45.774,-193.91 45.774,-200.353L45.774,-253.63C45.774,-271.103 31.61,-285.268 14.136,-285.268L-6.53,-285.268C-24.003,-285.268 -38.168,-271.103 -38.168,-253.63L-38.168,-200.353C-38.168,-193.91 -32.945,-188.686 -26.502,-188.686L-21.197,-188.686L-21.197,-170.1C-21.197,-163.873 -24.888,-158.192 -30.637,-155.802C-63.224,-142.255 -86.197,-110.089 -86.197,-72.656C-86.197,-53.269 -80.031,-35.297 -69.562,-20.59C-66.052,-15.659 -65.789,-9.119 -68.816,-3.877L-112.341,71.511C-117.312,67.5 -122.128,63.201 -126.754,58.599C-139.537,45.885 -160.832,45.585 -173.484,58.43C-186.064,71.202 -186.004,91.755 -173.306,104.454C-125.998,151.761 -63.1,177.814 3.803,177.814C70.706,177.814 133.604,151.761 180.912,104.454C193.67,91.695 193.67,71.009 180.912,58.251" style="fill-rule:nonzero;"/>
    </g>
</svg>
