<svg xmlns="http://www.w3.org/2000/svg" xml:space="preserve" fill-rule="evenodd" stroke-linejoin="round" stroke-miterlimit="2" clip-rule="evenodd" viewBox="0 0 417 417">
  <path fill="none" d="M0 0h416.667v416.667H0z"/>
  <path d="M366.682 140.33v136.007c0 49.863-40.483 90.345-90.346 90.345H140.33c-49.863 0-90.346-40.482-90.346-90.345V140.33c0-49.863 40.483-90.346 90.346-90.346h136.006c49.863 0 90.346 40.483 90.346 90.346Zm-158.349-21.187c-49.225 0-89.19 39.965-89.19 89.19 0 49.226 39.965 89.19 89.19 89.19 49.226 0 89.19-39.964 89.19-89.19 0-49.225-39.964-89.19-89.19-89.19Zm0 45.225c24.265 0 43.966 19.7 43.966 43.966 0 24.265-19.7 43.965-43.966 43.965-24.265 0-43.965-19.7-43.965-43.965 0-24.266 19.7-43.966 43.965-43.966Zm91.224-70.697c-12.51 0-22.667 10.156-22.667 22.667 0 12.51 10.157 22.667 22.667 22.667 12.511 0 22.668-10.157 22.668-22.667 0-12.511-10.157-22.667-22.668-22.667Z"/>
</svg>
