<svg xmlns="http://www.w3.org/2000/svg" xml:space="preserve" fill-rule="evenodd" stroke-linejoin="round" stroke-miterlimit="2" clip-rule="evenodd" viewBox="0 0 417 417">
  <g transform="translate(-1373.713)">
    <path fill="none" d="M1373.71 0h416.667v416.667H1373.71z"/>
    <clipPath id="a">
      <path d="M1373.71 0h416.667v416.667H1373.71z"/>
    </clipPath>
    <g clip-path="url(#a)">
      <path d="M1409.453 251.372c-21.329-12.12-35.736-35.05-35.736-61.317 0-38.896 31.576-70.474 70.477-70.474 13.09 0 25.347 3.577 35.855 9.803 24.785-14.868 54.583-24.51 86.933-26.916 7.756-21.619 18.144-36.324 32.129-46.358 9.795-7.03 21.59-11.86 36.247-14.58 7.113-16.35 23.419-27.796 42.376-27.796 25.488 0 46.184 20.695 46.184 46.183 0 25.489-20.696 46.182-46.184 46.182-16.898 0-31.676-9.087-39.733-22.634-5.606 1.431-10.429 3.506-14.598 6.497-4.792 3.438-8.52 8.039-11.684 13.844 27.035 3.672 51.97 12.436 73.269 25.04 10.298-5.895 22.223-9.265 34.922-9.265 38.9 0 70.476 31.578 70.476 70.474 0 25.478-13.553 47.817-33.827 60.196-4.4 74.936-80.492 134.68-173.593 134.68-92.629 0-168.43-59.15-173.513-133.56Zm70.757-47.4c-7.073 8.078-8.83 26.633-6.49 37.213 1.598 7.229 6.139 14.408 12.75 16.82 7.544 2.752 29.506 4.528 37.844-3.086 8.39-7.664 6.832-32.949 4.762-43.06-1.497-7.356-7.002-15.064-14.035-17.845-15.28-6.041-27.185 1.225-34.83 9.959Zm39.593 83.199c1.507 9.594 10.097 17.319 15.2 22 11.343 10.41 26.363 17.062 46.777 17.062 20.415 0 32.17-4.112 47.49-17.606 8.79-7.745 11.986-10.555 15.532-21.456-3.707-9.716-38.428-10.494-62.75-10.494-23.52 0-59.646 1.398-62.249 10.494Zm164.09-83.198c-7.645-8.734-19.54-16-34.821-9.959-7.033 2.78-12.538 10.49-14.045 17.845-2.07 10.111-3.627 35.396 4.762 43.06 8.338 7.614 30.3 5.838 37.845 3.085 6.61-2.411 11.152-9.59 12.749-16.819 2.35-10.58.583-29.135-6.49-37.212Z"/>
    </g>
  </g>
</svg>
