<svg xmlns="http://www.w3.org/2000/svg" xml:space="preserve" style="fill-rule:evenodd;clip-rule:evenodd;stroke-linecap:round;stroke-linejoin:round;stroke-miterlimit:1.5" viewBox="0 0 650 570">
  <path d="M650 70v429c0 39-31 70-70 70H70c-39 0-70-31-70-70V70C0 31 31 0 70 0h510c39 0 70 31 70 70ZM106 207v155H66a55 55 0 0 0 0 110h40v27c0 25 20 45 45 45h429c25 0 45-20 45-45V70c0-25-20-45-45-45H151c-25 0-45 20-45 45v27H66a55 55 0 0 0 0 110h40Z"/>
  <path d="M66 387h79a30 30 0 0 1 0 60H66a30 30 0 0 1 0-60Zm0-265h79a30 30 0 0 1 0 60H66a30 30 0 0 1 0-60Zm439 218a150 150 0 1 1 0-110h-49l-6-10c-4-5-5-11-4-17-5 1-12 0-17-4-7-5-14-9-22-12-6-3-10-8-12-13-4 4-10 6-17 5a107 107 0 0 0-26 0c-6 1-12-1-16-5-2 5-6 10-12 13-8 3-16 7-22 12-5 4-12 5-18 4 2 6 1 12-3 17-5 7-10 15-13 23-3 6-8 10-13 12 4 4 6 10 5 16l-1 13v1l1 13c1 6-1 12-5 17 5 2 10 6 13 12 3 8 8 15 13 22 4 5 5 11 3 17 6-1 13 0 18 4 6 5 14 9 22 13 6 2 10 7 12 13 4-4 10-6 16-6a107 107 0 0 0 26 0c7 0 13 2 17 6 2-6 6-11 12-13l22-13c5-4 12-5 17-4-1-6 0-12 4-17l6-9h49Z"/>
  <path d="M440 315a81 81 0 1 1 0-60h125a30 30 0 0 1 0 60H440Z" style="stroke:#ebebeb;stroke-width:.24px"/>
</svg>
