<?xml version="1.0" encoding="UTF-8" standalone="no"?><!DOCTYPE svg PUBLIC "-//W3C//DTD SVG 1.1//EN" "http://www.w3.org/Graphics/SVG/1.1/DTD/svg11.dtd"><svg width="100%" height="100%" viewBox="0 0 650 570" version="1.1" xmlns="http://www.w3.org/2000/svg" xmlns:xlink="http://www.w3.org/1999/xlink" xml:space="preserve" xmlns:serif="http://www.serif.com/" style="fill-rule:evenodd;clip-rule:evenodd;stroke-linecap:round;stroke-linejoin:round;stroke-miterlimit:1.5;"><path d="M650,70l-0,429.25c-0,38.634 -31.366,70 -70,70l-510,0c-38.634,0 -70,-31.366 -70,-70l-0,-429.25c-0,-38.634 31.366,-70 70,-70l510,-0c38.634,-0 70,31.366 70,70Zm-544.25,137.374l-0,154.502l-39.3,-0c-30.328,-0 -54.95,24.622 -54.95,54.95c-0,30.327 24.622,54.95 54.95,54.95l39.3,-0l-0,27.499c-0,24.836 20.164,45 45,45l429.3,0c24.836,0 45,-20.164 45,-45l0,-429.3c0,-24.836 -20.164,-45 -45,-45l-429.3,-0c-24.836,-0 -45,20.164 -45,45l-0,27.499l-39.3,0c-30.328,0 -54.95,24.623 -54.95,54.95c-0,30.328 24.622,54.95 54.95,54.95l39.3,0Z"/><path d="M66.45,386.876l78.6,-0c16.53,-0 29.95,13.42 29.95,29.95c0,16.529 -13.42,29.95 -29.95,29.95l-78.6,-0c-16.53,-0 -29.95,-13.421 -29.95,-29.95c0,-16.53 13.42,-29.95 29.95,-29.95Z"/><path d="M66.45,122.474l78.6,0c16.53,0 29.95,13.421 29.95,29.95c0,16.53 -13.42,29.95 -29.95,29.95l-78.6,0c-16.53,0 -29.95,-13.42 -29.95,-29.95c0,-16.529 13.42,-29.95 29.95,-29.95Z"/><path d="M504.98,339.625c-21.956,55.611 -76.204,95 -139.58,95c-82.787,-0 -150,-67.213 -150,-150c0,-82.787 67.213,-150 150,-150c63.376,-0 117.624,39.389 139.58,95l-48.664,-0c-1.925,-3.202 -4.016,-6.293 -6.258,-9.264c-3.84,-5.086 -5.012,-11.361 -3.751,-17.141c-5.78,1.261 -12.055,0.089 -17.141,-3.751c-6.854,-5.175 -14.355,-9.538 -22.36,-12.943c-5.85,-2.489 -9.988,-7.326 -11.784,-12.947c-4.364,3.973 -10.368,6.096 -16.68,5.328c-4.242,-0.517 -8.561,-0.782 -12.942,-0.782c-4.38,-0 -8.699,0.265 -12.941,0.782c-6.313,0.768 -12.317,-1.355 -16.681,-5.328c-1.795,5.621 -5.934,10.458 -11.784,12.947c-8.005,3.405 -15.506,7.768 -22.36,12.943c-5.086,3.84 -11.361,5.012 -17.141,3.751c1.261,5.78 0.089,12.055 -3.751,17.141c-5.175,6.854 -9.538,14.355 -12.943,22.36c-2.489,5.85 -7.326,9.988 -12.947,11.784c3.973,4.364 6.096,10.368 5.328,16.681c-0.517,4.242 -0.782,8.561 -0.782,12.941l0,0.996c0,4.38 0.265,8.699 0.782,12.941c0.768,6.313 -1.355,12.317 -5.328,16.681c5.621,1.795 10.458,5.934 12.947,11.784c3.405,8.005 7.768,15.506 12.943,22.36c3.84,5.086 5.012,11.361 3.751,17.141c5.78,-1.261 12.055,-0.089 17.141,3.751c6.854,5.175 14.355,9.538 22.36,12.943c5.85,2.489 9.988,7.326 11.784,12.947c4.364,-3.973 10.368,-6.096 16.68,-5.328c4.242,0.517 8.561,0.782 12.942,0.782c4.38,0 8.699,-0.265 12.941,-0.782c6.313,-0.768 12.317,1.355 16.681,5.328c1.795,-5.621 5.934,-10.458 11.784,-12.947c8.005,-3.405 15.506,-7.768 22.36,-12.943c5.086,-3.84 11.361,-5.012 17.141,-3.751c-1.261,-5.78 -0.089,-12.055 3.751,-17.141c2.242,-2.971 4.333,-6.062 6.258,-9.264l48.664,-0Z"/><path d="M440.115,314.625c-11.905,29.589 -40.887,50.5 -74.715,50.5c-44.429,-0 -80.5,-36.071 -80.5,-80.5c0,-44.429 36.071,-80.5 80.5,-80.5c33.828,-0 62.81,20.911 74.715,50.5l124.401,0c16.557,0 30,13.443 30,30c-0,16.557 -13.443,30 -30,30l-124.401,-0Z" style="stroke:#ebebeb;stroke-width:0.24px;"/></svg>