<svg xmlns="http://www.w3.org/2000/svg" xml:space="preserve" style="enable-background:new 0 0 512 512" viewBox="0 0 512 512">
  <path d="M422 456H91c-19 0-35-15-35-33V231c0-3 1-4 3-6h1v-1l47-41v-69c0-4 4-8 8-8h81l55-48c3-3 8-3 11 0l55 48h81c4 0 8 4 8 8v69l47 41v1h1l1 1v1l1 4v191c0 19-15 34-34 34zM91 439h336L261 291c-2-2-7-2-9 0L86 439h5zm-18-16 1 4 101-89-102-90v175zm5-192 29 25v-51l-29 26zM256 75l-35 31h71l-36-31zm-133 47v148l64 56 54-48c9-7 22-7 30 0l55 48 64-56V122H123zm283 83v51l29-25-29-26zm34 43-102 89 101 90 1-4V248z" style="fill-rule:evenodd;clip-rule:evenodd;fill:#000"/>
</svg>
