<svg xmlns="http://www.w3.org/2000/svg" xml:space="preserve" fill-rule="evenodd" stroke-linejoin="round" stroke-miterlimit="2" clip-rule="evenodd" viewBox="0 0 492 684">
  <path fill="#fff" fill-rule="nonzero" d="M242.26 198.74a40.04 40.04 0 0 1 43.14 43.14 40.16 40.16 0 0 1-36.61 36.6 40.04 40.04 0 0 1-43.13-43.12 40.16 40.16 0 0 1 36.6-36.62m238.9 269.15c-13.53-13.8-36.2-13.25-49.9.37a264.87 264.87 0 0 1-26.23 22.81l-83.24-168.7a113.05 113.05 0 0 1-56.18 27.76l85.23 172.74a264.97 264.97 0 0 1-213.55-1.32l90.75-179.1a19.33 19.33 0 0 1 17.37-10.5h.12c51.46 0 93.33-41.87 93.33-93.34 0-37.54-22.28-69.97-54.3-84.77a19.26 19.26 0 0 1-11.03-17.54v-9.81c0-2.1 1.7-3.8 3.8-3.8h3.78c5.9 0 10.68-4.78 10.68-10.68V35.56A35.56 35.56 0 0 0 256.23 0h-21.4a35.56 35.56 0 0 0-35.56 35.56V112c0 5.9 4.78 10.68 10.68 10.68h3.78c2.1 0 3.8 1.7 3.8 3.8v9.81c0 7.48-4.23 14.4-11.02 17.54-32.03 14.8-54.31 47.23-54.31 84.77 0 20.71 6.8 39.86 18.25 55.36a18.97 18.97 0 0 1 1.83 19.88L83.48 489.1a264.9 264.9 0 0 1-24.3-21.48 34.67 34.67 0 1 0-49.03 49.03 337.33 337.33 0 0 0 38.9 33.39L34.63 578.9a55.13 55.13 0 0 0-5.37 17.6l-10.78 83.67a3.29 3.29 0 0 0 5.47 2.84l58.95-53.87c5-4.56 9.1-10 12.12-16.04l14.03-28.05a331.97 331.97 0 0 0 136.48 29.09c88.91 0 172.5-34.62 235.37-97.5a34.67 34.67 0 0 0 .26-48.76M461.8 596.51a55.16 55.16 0 0 0-5.37-17.6l-5.16-10.33a351.5 351.5 0 0 1-60.14 34.73l4.9 9.8a55.17 55.17 0 0 0 12.12 16.04l58.95 53.87a3.29 3.29 0 0 0 5.48-2.84L461.8 596.5Z"/>
</svg>
