<svg xmlns="http://www.w3.org/2000/svg" xml:space="preserve" fill-rule="evenodd" stroke-linejoin="round" stroke-miterlimit="2" clip-rule="evenodd" viewBox="0 0 498 618">
  <path fill-rule="nonzero" d="M243.8 237a46.7 46.7 0 1 1 10 93 46.7 46.7 0 0 1-10-93M485 458c-17-17-44.5-17-61.6 0a248.3 248.3 0 0 1-19.6 17.7L349 381.1a140 140 0 0 1-65.7 38l54.5 94.6c-57.1 22-120.9 22-178 0l58-100.5c4-7 12-11 20-10.2a119.6 119.6 0 0 0 131-119.5c0-50-30.6-92.8-74.1-110.9a20.6 20.6 0 0 1-12.6-19v-24.8h7.1c8.6 0 15.6-7 15.6-15.6v-71A42.2 42.2 0 0 0 262.7 0H235a42.2 42.2 0 0 0-42 42.2v71c0 8.6 7 15.6 15.6 15.6h7v24.8c0 8.3-4.9 15.8-12.5 19A120.2 120.2 0 0 0 151 353a20.3 20.3 0 0 1 1 22.3L94 475.7c-6.6-5.3-13-11-19.2-17.2a44.4 44.4 0 0 0-62.3-.2 43.6 43.6 0 0 0 .3 61.3 331.4 331.4 0 0 0 236.1 97.8c89.2 0 173-34.7 236.1-97.8 17-17 17-44.6 0-61.6"/>
</svg>
