<svg xmlns="http://www.w3.org/2000/svg" xml:space="preserve" style="fill-rule:evenodd;clip-rule:evenodd;stroke-linejoin:round;stroke-miterlimit:2" viewBox="0 0 4167 4167">
  <path d="M4328 0h4166v4167H4328z" style="fill:none" transform="translate(-4328)"/>
  <path d="M833 2866V1301c0-258 210-468 468-468h1565c258 0 467 210 467 468v1565c0 258-209 467-467 467H1301a468 468 0 0 1-468-467Zm834-1408a208 208 0 1 0-417 1 208 208 0 0 0 417-1Z"/>
  <path d="M1875 3333a208 208 0 0 1 417 0v580a208 208 0 0 1-417 0v-580Zm625 0a208 208 0 0 1 417 0v580a208 208 0 0 1-417 0v-580Zm-1250 0a208 208 0 0 1 417 0v580a208 208 0 0 1-417 0v-580ZM734 2917H254a208 208 0 0 1 0-417h475v346c0 24 2 48 5 71Zm-5-625H254a208 208 0 0 1 0-417h475v417Zm0-625H254a208 208 0 0 1 0-417h475v417ZM1250 729V254a208 208 0 0 1 417 0v475h-417Zm625 0V254a208 208 0 0 1 417 0v475h-417Zm625 0V254a208 208 0 0 1 417 0v480c-23-3-47-5-71-5h-346ZM3333 2292a208 208 0 0 1 0-417h580a208 208 0 0 1 0 417h-580Zm0-625a208 208 0 0 1 0-417h580a208 208 0 0 1 0 417h-580Zm0 1250a208 208 0 0 1 0-417h580a208 208 0 0 1 0 417h-580Z"/>
</svg>
