<svg xmlns="http://www.w3.org/2000/svg" xml:space="preserve" style="fill-rule:evenodd;clip-rule:evenodd;stroke-linejoin:round;stroke-miterlimit:2" viewBox="0 0 4167 4167">
  <g transform="translate(-13167.3)">
    <path d="M13167.2 0h4166.7v4166.7h-4166.7z" style="fill:none"/>
    <clipPath id="a">
      <path d="M13167.2 0h4166.7v4166.7h-4166.7z"/>
    </clipPath>
    <g clip-path="url(#a)">
      <path d="M13847.3 2610c45.3-83 110.7-196.6 191.3-364.9 227.8-475.2-25.7-1163.6 592.3-1781.6s1621.5-618 2239.5 0 618 1621.5 0 2239.5-1306.4 364.6-1781.5 592.4c-168.4 80.6-281.9 146-364.9 191.3l-876.7-876.7Zm1647.7-869 331.4 331.3-421.8 81.4a156.4 156.4 0 0 0 59.2 306.9l710.9-137.2a156.3 156.3 0 0 0 80.8-264l-981-981a156.4 156.4 0 0 0-264 81l-137 710.8a156.3 156.3 0 0 0 306.7 59.2l81.4-421.9 233.4 233.4ZM14562.8 3715l-408.5 408.5a122.3 122.3 0 0 1-172.8 0l-771.1-771.1a122.3 122.3 0 0 1 0-172.9l408.4-408.4a122.2 122.2 0 0 1 172.8 0l771.2 771.1a122.2 122.2 0 0 1 0 172.8Z"/>
    </g>
  </g>
</svg>
