<svg xmlns="http://www.w3.org/2000/svg" xml:space="preserve" fill-rule="evenodd" stroke-linejoin="round" stroke-miterlimit="2" clip-rule="evenodd" viewBox="0 0 417 417">
  <path fill="none" d="M0 0h416.667v416.667H0z"/>
  <path d="M366.682 140.33v136.007c0 49.863-40.483 90.345-90.346 90.345H140.33c-49.863 0-90.346-40.482-90.346-90.345V140.33c0-49.863 40.483-90.346 90.346-90.346h136.006c49.863 0 90.346 40.483 90.346 90.346Zm-229.75 23.02c14.953 0 27.073-12.122 27.073-27.074 0-14.953-12.12-27.074-27.073-27.074-14.953 0-27.074 12.12-27.074 27.074 0 14.952 12.121 27.074 27.074 27.074Zm169.876 137.96v-57.82c0-25.135.281-70.884-48.687-70.884-22.114 0-32.499 8.095-39.488 18.583v-10.422c0-3.4-2.756-6.156-6.156-6.156H182.9a6.156 6.156 0 0 0-6.155 6.156V301.31a6.156 6.156 0 0 0 6.155 6.156h29.577a6.156 6.156 0 0 0 6.156-6.156v-64.632c.768-8.684 4.591-28.035 23.438-28.035 24.297 0 21.845 28.272 21.845 36.63v56.037a6.156 6.156 0 0 0 6.156 6.156h30.581a6.156 6.156 0 0 0 6.155-6.156Zm-148.932-.54V181.307a6.695 6.695 0 0 0-6.695-6.695h-28.499a6.695 6.695 0 0 0-6.695 6.695V300.77a6.696 6.696 0 0 0 6.695 6.695h28.5a6.696 6.696 0 0 0 6.694-6.695Z"/>
</svg>
