<svg xmlns="http://www.w3.org/2000/svg" xml:space="preserve" style="fill-rule:evenodd;clip-rule:evenodd;stroke-linejoin:round;stroke-miterlimit:2" viewBox="0 0 2046 1182">
  <path d="M0-107.5a35 35 0 1 1 7.5 69.7A35 35 0 0 1 0-107.5M181 58.3a32.7 32.7 0 0 0-46.3 0C130 63 125 67.4 120 71.5L79 .5a105 105 0 0 1-49.2 28.6L70.6 100A186.3 186.3 0 0 1-63 100l43.5-75.3c3-5.4 9-8.3 15.1-7.7 3.2.3 6.5.4 9.8.3a90.1 90.1 0 0 0 32.8-173.1c-5.7-2.4-9.4-8-9.4-14.3v-18.6h5.3c6.5 0 11.7-5.2 11.7-11.7v-53.2A31.6 31.6 0 0 0 14-285.3H-6.5a31.6 31.6 0 0 0-31.7 31.7v53.2c0 6.5 5.3 11.7 11.7 11.7h5.3v18.6c0 6.2-3.7 12-9.4 14.3a90.1 90.1 0 0 0-39 135.2c3.5 5 3.8 11.5.8 16.7l-43.5 75.4c-5-4-9.8-8.3-14.5-12.9a33.3 33.3 0 0 0-46.7-.2 32.7 32.7 0 0 0 .2 46A248.8 248.8 0 0 0 3.8 177.9c67 0 129.8-26 177.1-73.3a32.7 32.7 0 0 0 0-46.2" style="fill-rule:nonzero" transform="rotate(-30 1413.4 -559.2) scale(1.848734)"/>
  <path d="M0-107.5a35 35 0 1 1 7.5 69.7A35 35 0 0 1 0-107.5M181 58.3a32.7 32.7 0 0 0-46.3 0C130 63 125 67.4 120 71.5L79 .5a105 105 0 0 1-49.2 28.6L70.6 100A186.3 186.3 0 0 1-63 100l43.5-75.3c3-5.4 9-8.3 15.1-7.7 3.2.3 6.5.4 9.8.3a90.1 90.1 0 0 0 32.8-173.1c-5.7-2.4-9.4-8-9.4-14.3v-18.6h5.3c6.5 0 11.7-5.2 11.7-11.7v-53.2A31.6 31.6 0 0 0 14-285.3H-6.5a31.6 31.6 0 0 0-31.7 31.7v53.2c0 6.5 5.3 11.7 11.7 11.7h5.3v18.6c0 6.2-3.7 12-9.4 14.3a90.1 90.1 0 0 0-39 135.2c3.5 5 3.8 11.5.8 16.7l-43.5 75.4c-5-4-9.8-8.3-14.5-12.9a33.3 33.3 0 0 0-46.7-.2 32.7 32.7 0 0 0 .2 46A248.8 248.8 0 0 0 3.8 177.9c67 0 129.8-26 177.1-73.3a32.7 32.7 0 0 0 0-46.2" style="fill-rule:nonzero" transform="rotate(-30 3075.2 -2159.7) scale(1.848734)"/>
  <path d="M0-107.5a35 35 0 1 1 7.5 69.7A35 35 0 0 1 0-107.5M181 58.3a32.7 32.7 0 0 0-46.3 0C130 63 125 67.4 120 71.5L79 .5a105 105 0 0 1-49.2 28.6L70.6 100A186.3 186.3 0 0 1-63 100l43.5-75.3c3-5.4 9-8.3 15.1-7.7 3.2.3 6.5.4 9.8.3a90.1 90.1 0 0 0 32.8-173.1c-5.7-2.4-9.4-8-9.4-14.3v-18.6h5.3c6.5 0 11.7-5.2 11.7-11.7v-53.2A31.6 31.6 0 0 0 14-285.3H-6.5a31.6 31.6 0 0 0-31.7 31.7v53.2c0 6.5 5.3 11.7 11.7 11.7h5.3v18.6c0 6.2-3.7 12-9.4 14.3a90.1 90.1 0 0 0-39 135.2c3.5 5 3.8 11.5.8 16.7l-43.5 75.4c-5-4-9.8-8.3-14.5-12.9a33.3 33.3 0 0 0-46.7-.2 32.7 32.7 0 0 0 .2 46A248.8 248.8 0 0 0 3.8 177.9c67 0 129.8-26 177.1-73.3a32.7 32.7 0 0 0 0-46.2" style="fill-rule:nonzero" transform="rotate(-30 871.1 -2750.4) scale(1.848734)"/>
</svg>
