<svg xmlns="http://www.w3.org/2000/svg" xml:space="preserve" fill-rule="evenodd" stroke-linejoin="round" stroke-miterlimit="2" clip-rule="evenodd" viewBox="0 0 417 417">
  <path fill="none" d="M0 0h416.668v416.667H.001z"/>
  <path d="M187.5 366.682h-47.17c-49.863 0-90.346-40.482-90.346-90.345V140.33c0-49.863 40.483-90.346 90.346-90.346h136.006c49.863 0 90.346 40.483 90.346 90.346v136.006c0 49.863-40.483 90.345-90.346 90.345h-47.17V246.118c12.396.039 24.183.078 33.374.1 11.498.03 20.857-9.282 20.886-20.78.03-11.498-9.283-20.857-20.78-20.886-9.219-.023-21.046-.062-33.48-.101v-18.774c0-5.162 3.161-9.643 8.252-9.643 19.647 0 15.123.06 25.174.06 11.5 0 20.834-9.335 20.834-20.834 0-11.498-9.335-20.833-20.834-20.833-10.05 0-5.527-.06-25.174-.06-28.718 0-49.918 22.193-49.918 51.31v18.664a8123.16 8123.16 0 0 0-14.095-.014c-11.498 0-20.833 9.336-20.833 20.834s9.335 20.833 20.833 20.833c4.231 0 8.992.005 14.095.014v120.674Z"/>
</svg>
