<svg width="25" height="24" viewBox="0 0 25 24" fill="none" xmlns="http://www.w3.org/2000/svg">
<path d="M17.5609 9.525L13.9749 5.939C13.6935 5.65774 13.3119 5.49978 12.914 5.49988C12.5162 5.49997 12.1346 5.65811 11.8534 5.9395C11.5721 6.2209 11.4142 6.6025 11.4143 7.00036C11.4143 7.39822 11.5725 7.77974 11.8539 8.061L14.2929 10.5H5.49988C5.10205 10.5 4.72052 10.658 4.43922 10.9393C4.15791 11.2206 3.99988 11.6022 3.99988 12C3.99988 12.3978 4.15791 12.7794 4.43922 13.0607C4.72052 13.342 5.10205 13.5 5.49988 13.5H14.2929L11.8539 15.939C11.5725 16.2203 11.4143 16.6018 11.4143 16.9997C11.4142 17.3975 11.5721 17.7791 11.8534 18.0605C12.1346 18.3419 12.5162 18.5 12.914 18.5001C13.3119 18.5002 13.6935 18.3423 13.9749 18.061L17.5609 14.475C18.2161 13.818 18.5841 12.9279 18.5841 12C18.5841 11.0721 18.2161 10.182 17.5609 9.525Z" fill="white"/>
</svg>
